<?xml version="1.0" encoding="utf-8"?>
<!-- Generator: Adobe Illustrator 16.0.0, SVG Export Plug-In . SVG Version: 6.00 Build 0)  -->
<!DOCTYPE svg PUBLIC "-//W3C//DTD SVG 1.1//EN" "http://www.w3.org/Graphics/SVG/1.1/DTD/svg11.dtd">
<svg version="1.1" id="Layer_1" xmlns="http://www.w3.org/2000/svg" xmlns:xlink="http://www.w3.org/1999/xlink" x="0px" y="0px"
	 width="362.81px" height="85.849px" viewBox="-10.865 -29.635 362.81 85.849"
	 enable-background="new -10.865 -29.635 362.81 85.849" xml:space="preserve">
<g>
	<path fill="#FFFFFF" d="M84.646-12.458l0.542,0.115l-1.903,6.038H66.059v-0.607h0.837c0.94,0,1.613-0.306,2.018-0.919
		c0.229-0.35,0.345-1.159,0.345-2.428v-14.355c0-1.389-0.153-2.258-0.46-2.608c-0.426-0.481-1.061-0.722-1.902-0.722h-0.837v-0.607
		h10.073v0.607c-1.182-0.011-2.01,0.098-2.485,0.328c-0.476,0.229-0.802,0.52-0.977,0.869c-0.175,0.351-0.263,1.187-0.263,2.51
		v13.978c0,0.908,0.088,1.532,0.263,1.871c0.132,0.229,0.334,0.399,0.607,0.508c0.273,0.11,1.126,0.164,2.56,0.164h1.624
		c1.706,0,2.903-0.125,3.593-0.377s1.318-0.697,1.887-1.337C83.509-10.071,84.078-11.08,84.646-12.458z"/>
	<path fill="#FFFFFF" d="M95.32-8.471c-1.542,1.192-2.51,1.881-2.903,2.067c-0.591,0.273-1.22,0.41-1.887,0.41
		c-1.039,0-1.896-0.355-2.567-1.066c-0.673-0.71-1.01-1.646-1.01-2.805c0-0.733,0.164-1.367,0.492-1.903
		c0.449-0.744,1.229-1.444,2.338-2.1c1.11-0.656,2.956-1.454,5.537-2.395v-0.591c0-1.498-0.237-2.526-0.713-3.084
		c-0.477-0.558-1.168-0.836-2.076-0.836c-0.688,0-1.235,0.186-1.641,0.558c-0.415,0.372-0.623,0.799-0.623,1.28l0.033,0.952
		c0,0.503-0.129,0.892-0.386,1.165c-0.257,0.274-0.594,0.41-1.009,0.41c-0.405,0-0.736-0.142-0.993-0.426
		c-0.257-0.284-0.386-0.673-0.386-1.165c0-0.94,0.481-1.805,1.444-2.592c0.962-0.787,2.313-1.181,4.052-1.181
		c1.335,0,2.429,0.225,3.281,0.673c0.646,0.339,1.121,0.87,1.428,1.591c0.197,0.47,0.295,1.433,0.295,2.888v5.102
		c0,1.433,0.027,2.311,0.082,2.633c0.055,0.323,0.146,0.539,0.271,0.648c0.125,0.109,0.271,0.164,0.435,0.164
		c0.175,0,0.328-0.038,0.459-0.115c0.229-0.142,0.673-0.542,1.329-1.198v0.919c-1.225,1.641-2.396,2.461-3.511,2.461
		c-0.536,0-0.963-0.186-1.28-0.558C95.495-6.94,95.331-7.574,95.32-8.471z M95.32-9.538v-5.726
		c-1.651,0.656-2.718,1.122-3.199,1.395c-0.863,0.481-1.481,0.984-1.854,1.51c-0.372,0.525-0.558,1.099-0.558,1.723
		c0,0.787,0.235,1.441,0.705,1.96c0.471,0.52,1.012,0.779,1.624,0.779C92.87-7.897,93.965-8.444,95.32-9.538z"/>
	<path fill="#FFFFFF" d="M100.068-21.334h6.301v0.607c-0.58,0.043-0.96,0.147-1.141,0.312s-0.271,0.399-0.271,0.706
		c0,0.339,0.093,0.749,0.278,1.23l3.216,8.646l3.232-7.038l-0.854-2.215c-0.263-0.656-0.606-1.11-1.033-1.362
		c-0.241-0.153-0.689-0.246-1.346-0.279v-0.607h7.153v0.607c-0.787,0.033-1.346,0.175-1.674,0.426
		c-0.219,0.175-0.328,0.454-0.328,0.837c0,0.219,0.044,0.443,0.132,0.672l3.412,8.63l3.167-8.318
		c0.219-0.591,0.328-1.061,0.328-1.411c0-0.208-0.107-0.394-0.32-0.558s-0.632-0.257-1.255-0.279v-0.607h4.741v0.607
		c-0.951,0.142-1.651,0.787-2.1,1.936l-5.021,12.945h-0.673l-3.757-9.598l-4.381,9.598h-0.606l-4.824-12.633
		c-0.317-0.798-0.629-1.337-0.935-1.616c-0.307-0.279-0.788-0.489-1.444-0.631V-21.334z"/>
	<path fill="#FFFFFF" d="M144.809-29.061c2.888,0,5.39,1.097,7.506,3.29s3.175,4.93,3.175,8.211c0,3.38-1.066,6.186-3.199,8.417
		c-2.133,2.231-4.714,3.347-7.744,3.347c-3.062,0-5.635-1.088-7.719-3.265c-2.084-2.176-3.125-4.993-3.125-8.449
		c0-3.533,1.203-6.415,3.609-8.646C139.4-28.094,141.899-29.061,144.809-29.061z M144.497-27.864c-1.991,0-3.588,0.738-4.791,2.215
		c-1.498,1.837-2.247,4.528-2.247,8.072c0,3.631,0.776,6.426,2.329,8.383c1.192,1.488,2.768,2.231,4.726,2.231
		c2.089,0,3.814-0.814,5.176-2.444c1.362-1.63,2.043-4.2,2.043-7.711c0-3.807-0.749-6.645-2.248-8.515
		C148.281-27.12,146.619-27.864,144.497-27.864z"/>
	<path fill="#FFFFFF" d="M163.306-20.153v9.876c0,1.4,0.152,2.286,0.459,2.658c0.404,0.481,0.946,0.722,1.624,0.722h1.362v0.591
		h-8.975v-0.591h0.673c0.438,0,0.837-0.109,1.197-0.328c0.361-0.218,0.609-0.514,0.747-0.886c0.137-0.372,0.205-1.094,0.205-2.166
		v-9.876h-2.921v-1.182h2.921v-0.984c0-1.498,0.24-2.767,0.722-3.806c0.481-1.039,1.217-1.878,2.206-2.518
		c0.99-0.64,2.103-0.96,3.339-0.96c1.148,0,2.204,0.372,3.167,1.116c0.634,0.492,0.951,1.044,0.951,1.657
		c0,0.328-0.143,0.638-0.427,0.927c-0.284,0.29-0.591,0.435-0.919,0.435c-0.251,0-0.517-0.09-0.795-0.271
		c-0.279-0.181-0.621-0.569-1.025-1.165c-0.405-0.596-0.777-0.998-1.116-1.206c-0.339-0.208-0.716-0.312-1.132-0.312
		c-0.503,0-0.93,0.134-1.279,0.402c-0.351,0.269-0.602,0.684-0.755,1.247c-0.153,0.563-0.229,2.016-0.229,4.356v1.083h3.871v1.182
		H163.306z"/>
	<path fill="#FFFFFF" d="M174.724-20.153v9.876c0,1.4,0.152,2.286,0.459,2.658c0.404,0.481,0.946,0.722,1.624,0.722h1.362v0.591
		h-8.975v-0.591h0.673c0.438,0,0.837-0.109,1.197-0.328c0.361-0.218,0.609-0.514,0.747-0.886c0.137-0.372,0.205-1.094,0.205-2.166
		v-9.876h-2.921v-1.182h2.921v-0.984c0-1.498,0.24-2.767,0.722-3.806c0.481-1.039,1.217-1.878,2.206-2.518
		c0.99-0.64,2.103-0.96,3.339-0.96c1.148,0,2.204,0.372,3.167,1.116c0.634,0.492,0.951,1.044,0.951,1.657
		c0,0.328-0.143,0.638-0.427,0.927c-0.284,0.29-0.591,0.435-0.919,0.435c-0.251,0-0.517-0.09-0.795-0.271
		c-0.279-0.181-0.621-0.569-1.025-1.165c-0.405-0.596-0.777-0.998-1.116-1.206c-0.339-0.208-0.716-0.312-1.132-0.312
		c-0.503,0-0.93,0.134-1.279,0.402c-0.351,0.269-0.602,0.684-0.755,1.247c-0.153,0.563-0.229,2.016-0.229,4.356v1.083h3.871v1.182
		H174.724z"/>
	<path fill="#FFFFFF" d="M186.285-21.777v12.075c0,0.941,0.068,1.567,0.205,1.878s0.339,0.544,0.607,0.697
		c0.268,0.153,0.757,0.229,1.468,0.229v0.591h-7.301v-0.591c0.732,0,1.225-0.071,1.477-0.213s0.451-0.377,0.599-0.706
		c0.148-0.328,0.222-0.957,0.222-1.887v-5.792c0-1.629-0.049-2.685-0.147-3.167c-0.076-0.35-0.197-0.593-0.361-0.73
		s-0.388-0.205-0.672-0.205c-0.307,0-0.679,0.082-1.116,0.246l-0.229-0.591l4.528-1.837H186.285z M184.924-29.635
		c0.459,0,0.85,0.162,1.173,0.484c0.322,0.323,0.483,0.714,0.483,1.173c0,0.459-0.161,0.854-0.483,1.182
		c-0.323,0.328-0.714,0.492-1.173,0.492c-0.46,0-0.854-0.164-1.182-0.492s-0.492-0.722-0.492-1.182c0-0.459,0.161-0.85,0.484-1.173
		C184.057-29.474,184.453-29.635,184.924-29.635z"/>
	<path fill="#FFFFFF" d="M202.428-12.015c-0.405,1.98-1.198,3.503-2.379,4.569c-1.182,1.066-2.488,1.6-3.922,1.6
		c-1.706,0-3.193-0.716-4.462-2.149c-1.27-1.433-1.903-3.369-1.903-5.808c0-2.363,0.703-4.282,2.108-5.759s3.093-2.215,5.062-2.215
		c1.477,0,2.69,0.391,3.642,1.173c0.952,0.782,1.428,1.594,1.428,2.436c0,0.416-0.134,0.752-0.402,1.009
		c-0.268,0.257-0.643,0.385-1.124,0.385c-0.646,0-1.132-0.208-1.46-0.624c-0.186-0.229-0.309-0.667-0.369-1.312
		c-0.06-0.645-0.281-1.137-0.664-1.477c-0.383-0.328-0.913-0.492-1.592-0.492c-1.094,0-1.975,0.405-2.642,1.214
		c-0.886,1.072-1.328,2.488-1.328,4.249c0,1.794,0.439,3.377,1.32,4.75c0.88,1.373,2.069,2.059,3.568,2.059
		c1.072,0,2.034-0.366,2.888-1.099c0.602-0.503,1.187-1.417,1.755-2.74L202.428-12.015z"/>
	<path fill="#FFFFFF" d="M206.83-15.674c-0.011,2.231,0.531,3.981,1.625,5.25c1.093,1.269,2.379,1.903,3.855,1.903
		c0.984,0,1.84-0.271,2.567-0.812s1.337-1.468,1.829-2.781l0.509,0.328c-0.229,1.499-0.897,2.863-2.002,4.093
		s-2.488,1.846-4.15,1.846c-1.805,0-3.35-0.703-4.635-2.108c-1.285-1.405-1.928-3.295-1.928-5.668c0-2.57,0.658-4.574,1.977-6.013
		c1.318-1.438,2.973-2.157,4.963-2.157c1.685,0,3.068,0.555,4.151,1.665c1.082,1.11,1.624,2.595,1.624,4.454H206.83z M206.83-16.625
		h6.957c-0.056-0.962-0.17-1.641-0.345-2.035c-0.273-0.612-0.681-1.093-1.223-1.444c-0.541-0.35-1.107-0.525-1.698-0.525
		c-0.907,0-1.72,0.353-2.436,1.058C207.369-18.865,206.951-17.883,206.83-16.625z"/>
	<path fill="#FFFFFF" d="M228.85-21.777v5.119h-0.542c-0.415-1.607-0.948-2.701-1.6-3.281c-0.65-0.58-1.479-0.869-2.485-0.869
		c-0.766,0-1.384,0.202-1.854,0.607c-0.471,0.405-0.706,0.853-0.706,1.345c0,0.613,0.175,1.138,0.525,1.575
		c0.339,0.448,1.028,0.924,2.067,1.427l2.396,1.165c2.22,1.083,3.33,2.51,3.33,4.282c0,1.367-0.517,2.469-1.551,3.306
		c-1.033,0.837-2.189,1.255-3.47,1.255c-0.919,0-1.969-0.164-3.149-0.492c-0.361-0.109-0.656-0.164-0.887-0.164
		c-0.251,0-0.448,0.142-0.59,0.426h-0.542v-5.365h0.542c0.306,1.532,0.891,2.686,1.755,3.462c0.864,0.777,1.832,1.165,2.904,1.165
		c0.755,0,1.37-0.221,1.846-0.664c0.476-0.443,0.714-0.977,0.714-1.6c0-0.755-0.266-1.389-0.796-1.903
		c-0.531-0.514-1.589-1.165-3.175-1.952c-1.586-0.788-2.625-1.499-3.117-2.133c-0.492-0.624-0.738-1.411-0.738-2.363
		c0-1.236,0.424-2.27,1.271-3.101s1.944-1.247,3.289-1.247c0.591,0,1.308,0.126,2.149,0.377c0.558,0.164,0.93,0.246,1.116,0.246
		c0.175,0,0.312-0.038,0.41-0.115c0.098-0.077,0.213-0.246,0.344-0.509H228.85z"/>
	<path fill="#FFFFFF" d="M251.852-29.061c2.888,0,5.39,1.097,7.506,3.29s3.175,4.93,3.175,8.211c0,3.38-1.066,6.186-3.199,8.417
		c-2.133,2.231-4.714,3.347-7.744,3.347c-3.062,0-5.635-1.088-7.719-3.265c-2.084-2.176-3.125-4.993-3.125-8.449
		c0-3.533,1.203-6.415,3.609-8.646C246.443-28.094,248.942-29.061,251.852-29.061z M251.54-27.864c-1.991,0-3.588,0.738-4.791,2.215
		c-1.498,1.837-2.247,4.528-2.247,8.072c0,3.631,0.776,6.426,2.329,8.383c1.192,1.488,2.768,2.231,4.726,2.231
		c2.089,0,3.814-0.814,5.176-2.444c1.362-1.63,2.043-4.2,2.043-7.711c0-3.807-0.749-6.645-2.248-8.515
		C255.324-27.12,253.662-27.864,251.54-27.864z"/>
	<path fill="#FFFFFF" d="M270.349-20.153v9.876c0,1.4,0.152,2.286,0.459,2.658c0.404,0.481,0.946,0.722,1.624,0.722h1.362v0.591
		h-8.975v-0.591h0.673c0.438,0,0.837-0.109,1.197-0.328c0.361-0.218,0.609-0.514,0.747-0.886c0.137-0.372,0.205-1.094,0.205-2.166
		v-9.876h-2.921v-1.182h2.921v-0.984c0-1.498,0.24-2.767,0.722-3.806c0.481-1.039,1.217-1.878,2.206-2.518
		c0.99-0.64,2.103-0.96,3.339-0.96c1.148,0,2.204,0.372,3.167,1.116c0.634,0.492,0.951,1.044,0.951,1.657
		c0,0.328-0.143,0.638-0.427,0.927c-0.284,0.29-0.591,0.435-0.919,0.435c-0.251,0-0.517-0.09-0.795-0.271
		c-0.279-0.181-0.621-0.569-1.025-1.165c-0.405-0.596-0.777-0.998-1.116-1.206c-0.339-0.208-0.716-0.312-1.132-0.312
		c-0.503,0-0.93,0.134-1.279,0.402c-0.351,0.269-0.602,0.684-0.755,1.247c-0.153,0.563-0.229,2.016-0.229,4.356v1.083h3.871v1.182
		H270.349z"/>
	<path fill="#FFFFFF" d="M1.801,13.229v17.587h9.778c2.537,0,4.232-0.382,5.086-1.148c1.137-1.006,1.771-2.778,1.902-5.316h1.215
		V39.84h-1.215c-0.307-2.166-0.612-3.555-0.918-4.167c-0.395-0.765-1.04-1.367-1.937-1.805c-0.897-0.437-2.275-0.656-4.134-0.656
		H1.801v14.667c0,1.969,0.087,3.167,0.263,3.593c0.175,0.427,0.48,0.766,0.918,1.018s1.269,0.377,2.494,0.377h7.547
		c2.516,0,4.342-0.175,5.479-0.525c1.138-0.35,2.231-1.038,3.281-2.066c1.356-1.356,2.745-3.401,4.167-6.137h1.312l-3.839,11.156
		h-34.289v-1.213h1.575c1.05,0,2.045-0.252,2.986-0.756c0.699-0.35,1.175-0.874,1.427-1.574c0.251-0.7,0.378-2.133,0.378-4.299
		V18.544c0-2.822-0.285-4.561-0.854-5.217c-0.787-0.875-2.1-1.312-3.938-1.312h-1.575v-1.214h34.289l0.492,9.745h-1.279
		c-0.46-2.34-0.968-3.948-1.526-4.823c-0.558-0.875-1.384-1.542-2.477-2.001c-0.876-0.328-2.418-0.492-4.627-0.492H1.801z"/>
	<path fill="#FFFFFF" d="M38.314,24.352v6.76c2.516-4.506,5.097-6.76,7.744-6.76c1.202,0,2.198,0.367,2.985,1.1
		c0.788,0.733,1.182,1.581,1.182,2.543c0,0.853-0.284,1.575-0.854,2.166c-0.568,0.59-1.246,0.886-2.034,0.886
		c-0.766,0-1.624-0.377-2.575-1.132c-0.952-0.755-1.657-1.132-2.117-1.132c-0.394,0-0.82,0.219-1.279,0.656
		c-0.984,0.897-2.002,2.374-3.052,4.43v14.405c0,1.662,0.208,2.92,0.624,3.773c0.283,0.591,0.787,1.083,1.509,1.477
		c0.722,0.395,1.761,0.591,3.117,0.591v1.181H28.176v-1.181c1.53,0,2.668-0.241,3.412-0.722c0.547-0.35,0.93-0.908,1.148-1.674
		c0.109-0.371,0.164-1.432,0.164-3.183V36.886c0-3.5-0.071-5.583-0.213-6.251c-0.143-0.667-0.405-1.153-0.788-1.46
		c-0.383-0.306-0.858-0.459-1.427-0.459c-0.679,0-1.444,0.164-2.297,0.492l-0.328-1.181l9.089-3.675H38.314z"/>
	<path fill="#FFFFFF" d="M62.906,24.352v24.151c0,1.881,0.137,3.133,0.41,3.756c0.273,0.624,0.678,1.089,1.214,1.395
		c0.536,0.307,1.515,0.46,2.937,0.46v1.181H52.865v-1.181c1.466,0,2.45-0.142,2.953-0.427c0.503-0.283,0.902-0.754,1.198-1.41
		c0.295-0.656,0.442-1.914,0.442-3.773V36.919c0-3.259-0.098-5.37-0.295-6.333c-0.153-0.7-0.394-1.186-0.722-1.46
		c-0.328-0.273-0.777-0.41-1.346-0.41c-0.612,0-1.356,0.164-2.231,0.492l-0.459-1.181l9.057-3.675H62.906z M60.183,8.635
		c0.919,0,1.701,0.323,2.347,0.968c0.645,0.646,0.968,1.427,0.968,2.346c0,0.918-0.323,1.706-0.968,2.362
		c-0.646,0.656-1.428,0.984-2.347,0.984s-1.706-0.328-2.362-0.984s-0.984-1.444-0.984-2.362c0-0.919,0.322-1.701,0.968-2.346
		C58.449,8.958,59.242,8.635,60.183,8.635z"/>
	<path fill="#FFFFFF" d="M94.531,43.876c-0.81,3.959-2.396,7.006-4.758,9.139s-4.977,3.199-7.842,3.199
		c-3.413,0-6.388-1.434-8.925-4.299C70.469,49.05,69.2,45.177,69.2,40.3c0-4.726,1.405-8.565,4.217-11.518
		c2.811-2.953,6.185-4.43,10.122-4.43c2.953,0,5.382,0.783,7.284,2.346c1.903,1.564,2.855,3.188,2.855,4.873
		c0,0.832-0.269,1.504-0.805,2.018c-0.536,0.514-1.285,0.771-2.247,0.771c-1.291,0-2.265-0.415-2.921-1.247
		c-0.372-0.459-0.618-1.334-0.738-2.625c-0.12-1.291-0.563-2.275-1.328-2.953c-0.767-0.656-1.827-0.984-3.184-0.984
		c-2.188,0-3.948,0.81-5.282,2.428c-1.772,2.144-2.658,4.977-2.658,8.498c0,3.588,0.881,6.754,2.642,9.5s4.14,4.118,7.137,4.118
		c2.144,0,4.068-0.732,5.775-2.199c1.202-1.006,2.373-2.832,3.511-5.479L94.531,43.876z"/>
	<path fill="#FFFFFF" d="M158.941,55.294h-11.878l-15.061-20.803c-1.116,0.044-2.023,0.066-2.724,0.066
		c-0.284,0-0.591-0.005-0.919-0.017c-0.328-0.011-0.667-0.027-1.017-0.049v12.928c0,2.801,0.306,4.54,0.918,5.218
		c0.831,0.963,2.078,1.444,3.741,1.444h1.739v1.213h-19.064v-1.213h1.674c1.881,0,3.226-0.613,4.035-1.838
		c0.46-0.678,0.689-2.285,0.689-4.824V18.676c0-2.8-0.307-4.539-0.919-5.217c-0.853-0.962-2.122-1.444-3.806-1.444h-1.674v-1.214
		h16.209c4.726,0,8.209,0.344,10.451,1.034c2.242,0.689,4.146,1.958,5.709,3.806c1.564,1.849,2.347,4.052,2.347,6.612
		c0,2.734-0.892,5.108-2.675,7.12c-1.783,2.013-4.544,3.435-8.285,4.266l9.188,12.764c2.101,2.932,3.905,4.878,5.414,5.841
		c1.51,0.963,3.479,1.574,5.906,1.838V55.294z M127.344,32.424c0.415,0,0.775,0.005,1.082,0.016
		c0.307,0.011,0.559,0.017,0.755,0.017c4.244,0,7.443-0.919,9.598-2.756s3.232-4.178,3.232-7.022c0-2.778-0.87-5.037-2.608-6.776
		c-1.739-1.739-4.042-2.608-6.907-2.608c-1.27,0-2.986,0.208-5.151,0.624V32.424z"/>
	<path fill="#FFFFFF" d="M171.378,24.352v24.151c0,1.881,0.137,3.133,0.41,3.756c0.273,0.624,0.678,1.089,1.214,1.395
		c0.536,0.307,1.515,0.46,2.937,0.46v1.181h-14.602v-1.181c1.466,0,2.45-0.142,2.953-0.427c0.503-0.283,0.902-0.754,1.198-1.41
		c0.295-0.656,0.442-1.914,0.442-3.773V36.919c0-3.259-0.098-5.37-0.295-6.333c-0.153-0.7-0.394-1.186-0.722-1.46
		c-0.328-0.273-0.777-0.41-1.346-0.41c-0.612,0-1.356,0.164-2.231,0.492l-0.459-1.181l9.057-3.675H171.378z M168.654,8.635
		c0.919,0,1.701,0.323,2.347,0.968c0.645,0.646,0.968,1.427,0.968,2.346c0,0.918-0.323,1.706-0.968,2.362
		c-0.646,0.656-1.428,0.984-2.347,0.984s-1.706-0.328-2.362-0.984s-0.984-1.444-0.984-2.362c0-0.919,0.322-1.701,0.968-2.346
		C166.921,8.958,167.714,8.635,168.654,8.635z"/>
	<path fill="#FFFFFF" d="M203.003,43.876c-0.81,3.959-2.396,7.006-4.758,9.139s-4.977,3.199-7.842,3.199
		c-3.413,0-6.388-1.434-8.925-4.299c-2.538-2.865-3.807-6.738-3.807-11.615c0-4.726,1.405-8.565,4.217-11.518
		c2.811-2.953,6.185-4.43,10.122-4.43c2.953,0,5.382,0.783,7.284,2.346c1.903,1.564,2.855,3.188,2.855,4.873
		c0,0.832-0.269,1.504-0.805,2.018c-0.536,0.514-1.285,0.771-2.247,0.771c-1.291,0-2.265-0.415-2.921-1.247
		c-0.372-0.459-0.618-1.334-0.738-2.625c-0.12-1.291-0.563-2.275-1.328-2.953c-0.767-0.656-1.827-0.984-3.184-0.984
		c-2.188,0-3.948,0.81-5.282,2.428c-1.772,2.144-2.658,4.977-2.658,8.498c0,3.588,0.881,6.754,2.642,9.5s4.14,4.118,7.137,4.118
		c2.144,0,4.068-0.732,5.775-2.199c1.202-1.006,2.373-2.832,3.511-5.479L203.003,43.876z"/>
	<path fill="#FFFFFF" d="M214.206,8.635v21.984c2.428-2.669,4.353-4.381,5.774-5.135c1.422-0.755,2.844-1.132,4.266-1.132
		c1.707,0,3.172,0.471,4.397,1.411c1.225,0.941,2.133,2.417,2.724,4.43c0.415,1.4,0.623,3.959,0.623,7.678v10.632
		c0,1.902,0.152,3.204,0.459,3.904c0.219,0.525,0.591,0.94,1.116,1.246c0.524,0.307,1.487,0.46,2.888,0.46v1.181h-14.766v-1.181
		h0.688c1.399,0,2.373-0.214,2.921-0.64c0.546-0.427,0.929-1.055,1.148-1.887c0.065-0.35,0.098-1.379,0.098-3.084V37.871
		c0-3.281-0.169-5.436-0.508-6.464c-0.34-1.028-0.881-1.799-1.625-2.313c-0.743-0.514-1.641-0.771-2.69-0.771
		c-1.072,0-2.188,0.284-3.347,0.853c-1.16,0.569-2.549,1.717-4.167,3.445v15.882c0,2.056,0.114,3.336,0.345,3.838
		c0.229,0.504,0.656,0.925,1.279,1.264c0.623,0.34,1.7,0.509,3.232,0.509v1.181h-14.897v-1.181c1.334,0,2.384-0.208,3.15-0.624
		c0.438-0.218,0.787-0.634,1.05-1.246s0.394-1.859,0.394-3.74V21.301c0-3.434-0.082-5.545-0.246-6.333s-0.416-1.323-0.755-1.608
		c-0.339-0.284-0.793-0.426-1.361-0.426c-0.459,0-1.203,0.175-2.231,0.525l-0.459-1.148l8.99-3.675H214.206z"/>
	<path fill="#FFFFFF" d="M248.583,30.75c2.187-2.187,3.478-3.445,3.871-3.773c0.984-0.831,2.046-1.477,3.184-1.936
		c1.137-0.459,2.264-0.689,3.379-0.689c1.882,0,3.5,0.547,4.856,1.641c1.356,1.094,2.265,2.68,2.724,4.758
		c2.253-2.625,4.156-4.348,5.709-5.168c1.554-0.82,3.15-1.23,4.791-1.23c1.597,0,3.013,0.41,4.249,1.23
		c1.235,0.82,2.215,2.161,2.937,4.02c0.481,1.269,0.723,3.26,0.723,5.972v12.929c0,1.881,0.142,3.172,0.426,3.871
		c0.219,0.481,0.624,0.892,1.215,1.23c0.59,0.34,1.553,0.509,2.887,0.509v1.181h-14.831v-1.181h0.624
		c1.29,0,2.297-0.251,3.019-0.755c0.503-0.35,0.863-0.907,1.083-1.674c0.087-0.371,0.131-1.432,0.131-3.182V35.574
		c0-2.45-0.295-4.178-0.886-5.185c-0.854-1.399-2.221-2.1-4.102-2.1c-1.16,0-2.325,0.291-3.495,0.87
		c-1.17,0.58-2.587,1.657-4.249,3.232l-0.065,0.361l0.065,1.411v14.34c0,2.056,0.115,3.336,0.345,3.838
		c0.229,0.504,0.661,0.925,1.296,1.264c0.635,0.34,1.717,0.509,3.249,0.509v1.181h-15.192v-1.181c1.662,0,2.806-0.196,3.429-0.591
		c0.623-0.394,1.055-0.984,1.296-1.771c0.109-0.372,0.164-1.455,0.164-3.248V35.574c0-2.45-0.36-4.211-1.083-5.283
		c-0.963-1.4-2.308-2.1-4.035-2.1c-1.182,0-2.353,0.317-3.512,0.952c-1.815,0.963-3.215,2.045-4.199,3.248v16.112
		c0,1.969,0.136,3.248,0.41,3.838c0.272,0.592,0.678,1.034,1.214,1.33c0.535,0.295,1.624,0.442,3.265,0.442v1.181h-14.864v-1.181
		c1.378,0,2.341-0.147,2.888-0.442c0.547-0.296,0.962-0.766,1.247-1.412c0.284-0.645,0.427-1.896,0.427-3.756V37.018
		c0-3.303-0.099-5.436-0.296-6.398c-0.153-0.722-0.394-1.219-0.722-1.493c-0.328-0.273-0.776-0.41-1.346-0.41
		c-0.612,0-1.345,0.164-2.198,0.492l-0.492-1.181l9.057-3.675h1.411V30.75z"/>
	<path fill="#FFFFFF" d="M308.104,50.964c-3.085,2.384-5.021,3.762-5.808,4.134c-1.182,0.546-2.439,0.82-3.773,0.82
		c-2.079,0-3.79-0.71-5.136-2.133c-1.345-1.422-2.018-3.292-2.018-5.61c0-1.466,0.328-2.734,0.984-3.807
		c0.896-1.488,2.455-2.888,4.676-4.2c2.22-1.312,5.911-2.909,11.074-4.791v-1.182c0-2.997-0.476-5.053-1.428-6.168
		c-0.951-1.116-2.335-1.673-4.15-1.673c-1.378,0-2.473,0.372-3.281,1.115c-0.832,0.744-1.247,1.597-1.247,2.56l0.065,1.903
		c0,1.006-0.257,1.783-0.771,2.33c-0.515,0.547-1.188,0.82-2.019,0.82c-0.81,0-1.472-0.284-1.985-0.853s-0.771-1.346-0.771-2.33
		c0-1.881,0.962-3.609,2.888-5.184c1.924-1.575,4.626-2.363,8.104-2.363c2.668,0,4.856,0.449,6.562,1.346
		c1.29,0.678,2.242,1.739,2.854,3.183c0.394,0.941,0.591,2.866,0.591,5.775V44.86c0,2.865,0.054,4.621,0.164,5.266
		c0.109,0.646,0.289,1.078,0.541,1.297c0.251,0.219,0.542,0.328,0.87,0.328c0.35,0,0.656-0.076,0.918-0.23
		c0.46-0.283,1.346-1.082,2.658-2.395v1.838c-2.45,3.281-4.791,4.922-7.021,4.922c-1.072,0-1.926-0.373-2.56-1.116
		C308.454,54.026,308.126,52.757,308.104,50.964z M308.104,48.831V37.379c-3.304,1.312-5.437,2.243-6.398,2.789
		c-1.729,0.963-2.965,1.969-3.708,3.019c-0.744,1.051-1.115,2.199-1.115,3.445c0,1.575,0.47,2.883,1.41,3.922
		s2.023,1.559,3.249,1.559C303.204,52.112,305.392,51.018,308.104,48.831z"/>
	<path fill="#FFFFFF" d="M329.501,30.718c3.521-4.244,6.879-6.366,10.073-6.366c1.641,0,3.052,0.41,4.232,1.23
		c1.182,0.82,2.122,2.171,2.822,4.053c0.48,1.312,0.722,3.325,0.722,6.037v12.831c0,1.902,0.152,3.193,0.459,3.871
		c0.241,0.547,0.629,0.974,1.165,1.279c0.536,0.307,1.526,0.46,2.97,0.46v1.181H337.08v-1.181h0.624c1.399,0,2.379-0.214,2.937-0.64
		c0.558-0.427,0.945-1.055,1.165-1.887c0.087-0.328,0.131-1.356,0.131-3.084V36.198c0-2.734-0.355-4.72-1.066-5.956
		s-1.909-1.854-3.593-1.854c-2.604,0-5.196,1.422-7.776,4.266v15.849c0,2.033,0.119,3.292,0.36,3.773
		c0.307,0.635,0.728,1.099,1.264,1.395c0.535,0.295,1.624,0.442,3.265,0.442v1.181h-14.864v-1.181h0.656
		c1.531,0,2.564-0.388,3.101-1.165c0.536-0.775,0.805-2.258,0.805-4.445V37.346c0-3.609-0.082-5.808-0.246-6.596
		c-0.164-0.787-0.416-1.323-0.755-1.607c-0.34-0.284-0.793-0.427-1.362-0.427c-0.612,0-1.345,0.164-2.198,0.492l-0.492-1.181
		l9.057-3.675h1.411V30.718z"/>
</g>
</svg>
