<?xml version="1.0" encoding="utf-8"?>
<!-- Generator: Adobe Illustrator 16.0.0, SVG Export Plug-In . SVG Version: 6.00 Build 0)  -->
<!DOCTYPE svg PUBLIC "-//W3C//DTD SVG 1.1//EN" "http://www.w3.org/Graphics/SVG/1.1/DTD/svg11.dtd">
<svg version="1.1" id="Layer_1" xmlns="http://www.w3.org/2000/svg" xmlns:xlink="http://www.w3.org/1999/xlink" x="0px" y="0px"
	 width="368.851px" height="85.067px" viewBox="0 0 368.851 85.067" enable-background="new 0 0 368.851 85.067"
	 xml:space="preserve">
<g>
	<path fill="#FFFFFF" d="M97.829,16.603l0.542,0.115l-1.903,6.038H79.241v-0.607h0.837c0.94,0,1.613-0.306,2.018-0.919
		c0.229-0.35,0.345-1.159,0.345-2.428V4.446c0-1.389-0.153-2.258-0.46-2.608c-0.426-0.481-1.061-0.722-1.902-0.722h-0.837V0.508
		h10.073v0.607c-1.182-0.011-2.01,0.098-2.485,0.328c-0.476,0.229-0.802,0.52-0.977,0.869C85.678,2.664,85.59,3.5,85.59,4.823
		v13.978c0,0.908,0.088,1.532,0.263,1.871c0.132,0.229,0.334,0.399,0.607,0.508c0.273,0.11,1.126,0.164,2.56,0.164h1.624
		c1.706,0,2.903-0.125,3.593-0.377s1.318-0.697,1.887-1.337C96.691,18.99,97.261,17.981,97.829,16.603z"/>
	<path fill="#FFFFFF" d="M109.658,17.542h-6.029l-1.057,2.458c-0.26,0.605-0.391,1.057-0.391,1.355c0,0.237,0.113,0.446,0.339,0.625
		c0.226,0.18,0.714,0.297,1.465,0.351v0.425h-4.904v-0.425c0.65-0.115,1.072-0.264,1.264-0.448c0.391-0.367,0.822-1.114,1.298-2.239
		l5.478-12.816h0.402l5.42,12.954c0.437,1.042,0.833,1.717,1.189,2.027c0.355,0.31,0.852,0.484,1.487,0.522v0.425h-6.145v-0.425
		c0.62-0.031,1.039-0.134,1.258-0.31c0.218-0.176,0.327-0.391,0.327-0.643c0-0.337-0.153-0.869-0.46-1.597L109.658,17.542z
		 M109.337,16.691l-2.642-6.293l-2.71,6.293H109.337z"/>
	<path fill="#FFFFFF" d="M135.05,7.183v0.425c-0.406,0-0.735,0.073-0.987,0.218c-0.253,0.146-0.494,0.417-0.724,0.815
		c-0.153,0.268-0.395,0.907-0.724,1.918l-4.341,12.552h-0.46l-3.549-9.957l-3.525,9.957h-0.413l-4.629-12.931
		c-0.344-0.965-0.562-1.535-0.654-1.711c-0.153-0.291-0.361-0.507-0.626-0.649c-0.264-0.142-0.622-0.212-1.073-0.212V7.183h5.765
		v0.425h-0.275c-0.406,0-0.716,0.092-0.931,0.276c-0.214,0.184-0.321,0.406-0.321,0.666c0,0.268,0.168,0.884,0.505,1.849l3.066,8.74
		l2.584-7.43l-0.459-1.31l-0.367-1.045c-0.161-0.383-0.341-0.72-0.54-1.011c-0.1-0.145-0.223-0.268-0.367-0.367
		c-0.192-0.138-0.384-0.237-0.574-0.299c-0.146-0.046-0.376-0.069-0.689-0.069V7.183h6.063v0.425h-0.413
		c-0.429,0-0.743,0.092-0.941,0.276c-0.199,0.184-0.299,0.433-0.299,0.746c0,0.391,0.172,1.072,0.517,2.044l2.986,8.464l2.963-8.579
		c0.337-0.949,0.505-1.608,0.505-1.976c0-0.176-0.056-0.34-0.166-0.494c-0.111-0.153-0.251-0.26-0.42-0.322
		c-0.291-0.107-0.67-0.161-1.137-0.161V7.183H135.05z"/>
	<path fill="#FFFFFF" d="M155.922,0c2.888,0,5.39,1.097,7.506,3.29s3.175,4.93,3.175,8.211c0,3.38-1.066,6.186-3.199,8.417
		c-2.133,2.231-4.714,3.347-7.744,3.347c-3.062,0-5.635-1.088-7.719-3.265c-2.084-2.176-3.125-4.993-3.125-8.449
		c0-3.533,1.203-6.415,3.609-8.646C150.514,0.968,153.013,0,155.922,0z M155.61,1.198c-1.991,0-3.588,0.738-4.791,2.215
		c-1.498,1.837-2.247,4.528-2.247,8.072c0,3.631,0.776,6.426,2.329,8.383c1.192,1.488,2.768,2.231,4.726,2.231
		c2.089,0,3.814-0.814,5.176-2.444c1.362-1.63,2.043-4.2,2.043-7.711c0-3.807-0.749-6.645-2.248-8.515
		C159.395,1.941,157.732,1.198,155.61,1.198z"/>
	<path fill="#FFFFFF" d="M172.623,8.032v6.122h2.837c0.65,0,1.127-0.144,1.43-0.431s0.504-0.856,0.604-1.706h0.425v5.271h-0.425
		c-0.008-0.604-0.087-1.049-0.235-1.332c-0.149-0.283-0.356-0.496-0.62-0.637c-0.265-0.142-0.657-0.212-1.178-0.212h-2.837v4.892
		c0,0.789,0.05,1.309,0.149,1.562c0.077,0.191,0.237,0.356,0.482,0.494c0.337,0.184,0.689,0.276,1.057,0.276h0.562v0.425h-6.684
		v-0.425h0.552c0.643,0,1.109-0.188,1.4-0.563c0.184-0.245,0.276-0.834,0.276-1.769V9.939c0-0.789-0.051-1.31-0.149-1.562
		c-0.077-0.191-0.234-0.356-0.472-0.494c-0.329-0.184-0.681-0.276-1.056-0.276h-0.552V7.183h11.588l0.149,3.422h-0.402
		c-0.199-0.728-0.431-1.261-0.694-1.602c-0.265-0.341-0.59-0.587-0.977-0.741s-0.985-0.23-1.797-0.23H172.623z"/>
	<path fill="#FFFFFF" d="M185.769,8.032v6.122h2.838c0.65,0,1.127-0.144,1.43-0.431s0.504-0.856,0.604-1.706h0.424v5.271h-0.424
		c-0.008-0.604-0.088-1.049-0.236-1.332s-0.355-0.496-0.619-0.637c-0.266-0.142-0.658-0.212-1.178-0.212h-2.838v4.892
		c0,0.789,0.051,1.309,0.15,1.562c0.076,0.191,0.236,0.356,0.482,0.494c0.336,0.184,0.689,0.276,1.057,0.276h0.562v0.425h-6.684
		v-0.425h0.552c0.643,0,1.109-0.188,1.4-0.563c0.184-0.245,0.276-0.834,0.276-1.769V9.939c0-0.789-0.051-1.31-0.149-1.562
		c-0.077-0.191-0.234-0.356-0.472-0.494c-0.329-0.184-0.681-0.276-1.056-0.276h-0.552V7.183h11.588l0.148,3.422h-0.402
		c-0.199-0.728-0.43-1.261-0.693-1.602c-0.266-0.341-0.59-0.587-0.977-0.741s-0.986-0.23-1.797-0.23H185.769z"/>
	<path fill="#FFFFFF" d="M201.267,22.331v0.425h-6.672v-0.425h0.551c0.643,0,1.109-0.188,1.4-0.563
		c0.184-0.245,0.275-0.834,0.275-1.769V9.939c0-0.789-0.049-1.31-0.148-1.562c-0.076-0.191-0.234-0.356-0.471-0.494
		c-0.338-0.184-0.689-0.276-1.057-0.276h-0.551V7.183h6.672v0.425h-0.562c-0.637,0-1.1,0.188-1.391,0.563
		c-0.191,0.245-0.287,0.834-0.287,1.769v10.06c0,0.789,0.051,1.309,0.15,1.562c0.076,0.191,0.236,0.356,0.482,0.494
		c0.328,0.184,0.678,0.276,1.045,0.276H201.267z"/>
	<path fill="#FFFFFF" d="M215.4,6.827l0.355,5.294H215.4c-0.475-1.584-1.152-2.725-2.033-3.422s-1.938-1.045-3.17-1.045
		c-1.033,0-1.967,0.262-2.803,0.787c-0.834,0.525-1.49,1.361-1.969,2.509s-0.717,2.577-0.717,4.284c0,1.409,0.225,2.63,0.676,3.664
		c0.453,1.034,1.133,1.826,2.039,2.377c0.908,0.551,1.943,0.827,3.107,0.827c1.01,0,1.902-0.216,2.676-0.649
		c0.773-0.432,1.623-1.292,2.549-2.578l0.355,0.23c-0.779,1.386-1.691,2.4-2.732,3.043c-1.041,0.644-2.277,0.965-3.709,0.965
		c-2.58,0-4.58-0.957-5.996-2.871c-1.057-1.424-1.584-3.101-1.584-5.03c0-1.554,0.348-2.982,1.045-4.284
		c0.697-1.301,1.656-2.31,2.877-3.026s2.555-1.074,4.002-1.074c1.125,0,2.236,0.275,3.33,0.827c0.322,0.168,0.553,0.253,0.689,0.253
		c0.207,0,0.387-0.073,0.539-0.218c0.199-0.207,0.342-0.494,0.426-0.861H215.4z"/>
	<path fill="#FFFFFF" d="M221.667,8.032v6.156h3.422c0.889,0,1.482-0.134,1.781-0.402c0.396-0.352,0.619-0.972,0.666-1.86h0.424
		v5.42h-0.424c-0.107-0.758-0.215-1.244-0.322-1.458c-0.139-0.268-0.363-0.479-0.678-0.632c-0.314-0.153-0.797-0.229-1.447-0.229
		h-3.422v5.133c0,0.689,0.031,1.108,0.092,1.258s0.168,0.268,0.322,0.356c0.152,0.088,0.443,0.132,0.871,0.132h2.643
		c0.881,0,1.52-0.062,1.918-0.184c0.398-0.122,0.781-0.363,1.148-0.724c0.475-0.475,0.961-1.19,1.459-2.147h0.459l-1.344,3.905
		h-12.002v-0.425h0.551c0.369,0,0.717-0.088,1.047-0.264c0.244-0.123,0.41-0.306,0.498-0.551s0.133-0.747,0.133-1.504V9.893
		c0-0.988-0.1-1.597-0.299-1.826c-0.275-0.306-0.734-0.459-1.379-0.459h-0.551V7.183h12.002l0.172,3.411h-0.447
		c-0.162-0.819-0.34-1.382-0.535-1.688s-0.484-0.54-0.867-0.701c-0.307-0.115-0.846-0.172-1.619-0.172H221.667z"/>
	<path fill="#FFFFFF" d="M241.617,6.827v5.386h-0.424c-0.139-1.034-0.385-1.857-0.742-2.469c-0.355-0.612-0.863-1.099-1.521-1.458
		s-1.34-0.54-2.043-0.54c-0.797,0-1.455,0.243-1.977,0.729c-0.52,0.486-0.781,1.039-0.781,1.66c0,0.475,0.166,0.907,0.494,1.297
		c0.475,0.574,1.604,1.34,3.389,2.297c1.453,0.781,2.447,1.38,2.98,1.797c0.531,0.417,0.941,0.909,1.229,1.476
		c0.287,0.567,0.43,1.16,0.43,1.78c0,1.179-0.457,2.195-1.371,3.049c-0.916,0.854-2.094,1.28-3.531,1.28
		c-0.453,0-0.877-0.034-1.275-0.104c-0.238-0.038-0.73-0.178-1.477-0.419s-1.219-0.362-1.418-0.362
		c-0.191,0-0.342,0.058-0.453,0.172s-0.193,0.352-0.248,0.712h-0.424v-5.34h0.424c0.199,1.118,0.467,1.955,0.805,2.509
		c0.336,0.555,0.852,1.017,1.545,1.384c0.693,0.367,1.453,0.551,2.279,0.551c0.957,0,1.713-0.253,2.268-0.758
		s0.834-1.103,0.834-1.792c0-0.383-0.105-0.77-0.316-1.16c-0.211-0.391-0.539-0.754-0.982-1.091
		c-0.299-0.229-1.113-0.718-2.445-1.464c-1.332-0.746-2.279-1.341-2.844-1.786c-0.562-0.444-0.988-0.934-1.279-1.47
		c-0.291-0.536-0.438-1.125-0.438-1.769c0-1.118,0.43-2.08,1.287-2.888c0.857-0.808,1.949-1.211,3.273-1.211
		c0.826,0,1.703,0.203,2.629,0.608c0.43,0.191,0.732,0.287,0.908,0.287c0.199,0,0.361-0.059,0.488-0.178
		c0.125-0.119,0.227-0.358,0.305-0.718H241.617z"/>
	<path fill="#FFFFFF" d="M264.603,0c2.887,0,5.389,1.097,7.506,3.29c2.115,2.193,3.174,4.93,3.174,8.211
		c0,3.38-1.066,6.186-3.199,8.417c-2.133,2.231-4.713,3.347-7.744,3.347c-3.062,0-5.635-1.088-7.719-3.265
		c-2.084-2.176-3.125-4.993-3.125-8.449c0-3.533,1.203-6.415,3.609-8.646C259.195,0.968,261.693,0,264.603,0z M264.291,1.198
		c-1.99,0-3.588,0.738-4.791,2.215c-1.498,1.837-2.246,4.528-2.246,8.072c0,3.631,0.775,6.426,2.328,8.383
		c1.193,1.488,2.768,2.231,4.727,2.231c2.088,0,3.814-0.814,5.176-2.444s2.043-4.2,2.043-7.711c0-3.807-0.75-6.645-2.248-8.515
		C268.076,1.941,266.414,1.198,264.291,1.198z"/>
	<path fill="#FFFFFF" d="M281.304,8.032v6.122h2.836c0.65,0,1.127-0.144,1.43-0.431s0.504-0.856,0.604-1.706h0.426v5.271h-0.426
		c-0.008-0.604-0.086-1.049-0.234-1.332c-0.15-0.283-0.357-0.496-0.621-0.637s-0.656-0.212-1.178-0.212h-2.836v4.892
		c0,0.789,0.049,1.309,0.148,1.562c0.078,0.191,0.238,0.356,0.482,0.494c0.338,0.184,0.689,0.276,1.057,0.276h0.562v0.425h-6.684
		v-0.425h0.553c0.643,0,1.109-0.188,1.4-0.563c0.184-0.245,0.275-0.834,0.275-1.769V9.939c0-0.789-0.051-1.31-0.148-1.562
		c-0.078-0.191-0.234-0.356-0.473-0.494c-0.328-0.184-0.68-0.276-1.055-0.276h-0.553V7.183h11.588l0.15,3.422h-0.402
		c-0.199-0.728-0.432-1.261-0.695-1.602s-0.59-0.587-0.977-0.741s-0.984-0.23-1.797-0.23H281.304z"/>
	<path fill="#FFFFFF" d="M12.666,42.29v17.587h9.778c2.537,0,4.232-0.382,5.086-1.148c1.137-1.006,1.771-2.778,1.902-5.316h1.215
		v15.488h-1.215c-0.307-2.166-0.612-3.555-0.918-4.167c-0.395-0.765-1.04-1.367-1.937-1.805c-0.897-0.437-2.275-0.656-4.134-0.656
		h-9.778V76.94c0,1.969,0.087,3.166,0.263,3.593c0.175,0.427,0.48,0.767,0.918,1.017c0.438,0.252,1.269,0.378,2.494,0.378h7.547
		c2.516,0,4.342-0.175,5.479-0.524s2.231-1.039,3.281-2.068c1.356-1.355,2.745-3.4,4.167-6.135h1.312l-3.839,11.156H0v-1.215h1.575
		c1.05,0,2.045-0.251,2.986-0.754c0.699-0.35,1.175-0.875,1.427-1.576c0.251-0.699,0.378-2.133,0.378-4.298V47.605
		c0-2.822-0.285-4.561-0.854-5.217c-0.787-0.875-2.1-1.312-3.938-1.312H0v-1.214h34.289l0.492,9.745h-1.279
		c-0.46-2.34-0.968-3.948-1.526-4.823c-0.558-0.875-1.384-1.542-2.477-2.001c-0.876-0.328-2.418-0.492-4.627-0.492H12.666z"/>
	<path fill="#FFFFFF" d="M70.291,84.356h-8.315L51.434,69.793c-0.781,0.031-1.417,0.046-1.906,0.046
		c-0.199,0-0.414-0.004-0.644-0.012c-0.229-0.007-0.467-0.019-0.712-0.034v9.049c0,1.961,0.214,3.178,0.643,3.652
		c0.582,0.674,1.455,1.012,2.619,1.012h1.217v0.85H39.306v-0.85h1.172c1.316,0,2.258-0.43,2.825-1.287
		c0.321-0.475,0.482-1.6,0.482-3.377v-20.12c0-1.959-0.215-3.177-0.644-3.652c-0.597-0.674-1.485-1.011-2.664-1.011h-1.172v-0.85
		h11.347c3.308,0,5.746,0.241,7.315,0.724c1.569,0.482,2.901,1.37,3.997,2.664c1.095,1.294,1.642,2.837,1.642,4.628
		c0,1.914-0.624,3.576-1.872,4.984c-1.248,1.409-3.181,2.404-5.799,2.986l6.431,8.936c1.471,2.052,2.733,3.414,3.79,4.088
		s2.435,1.103,4.135,1.287V84.356z M48.172,68.346c0.291,0,0.543,0.004,0.758,0.012c0.214,0.008,0.391,0.011,0.528,0.011
		c2.971,0,5.21-0.643,6.719-1.929c1.508-1.286,2.262-2.925,2.262-4.916c0-1.944-0.608-3.525-1.825-4.743
		c-1.218-1.217-2.829-1.826-4.835-1.826c-0.889,0-2.091,0.146-3.606,0.437V68.346z"/>
	<path fill="#FFFFFF" d="M85.362,83.506v0.85H72.018v-0.85h1.102c1.287,0,2.221-0.376,2.803-1.126
		c0.367-0.49,0.551-1.669,0.551-3.538v-20.12c0-1.577-0.1-2.618-0.298-3.124c-0.153-0.383-0.468-0.712-0.942-0.988
		c-0.674-0.367-1.378-0.551-2.113-0.551h-1.102v-0.85h13.345v0.85h-1.126c-1.271,0-2.197,0.375-2.779,1.125
		c-0.383,0.49-0.574,1.669-0.574,3.537v20.12c0,1.578,0.1,2.619,0.299,3.125c0.153,0.383,0.475,0.711,0.965,0.987
		c0.658,0.367,1.355,0.552,2.09,0.552H85.362z"/>
	<path fill="#FFFFFF" d="M113.265,52.498l0.712,10.588h-0.712c-0.949-3.17-2.305-5.451-4.065-6.845
		c-1.761-1.393-3.874-2.09-6.339-2.09c-2.067,0-3.936,0.525-5.604,1.574c-1.67,1.049-2.982,2.722-3.939,5.019
		s-1.436,5.153-1.436,8.567c0,2.817,0.451,5.26,1.355,7.327c0.903,2.067,2.262,3.651,4.077,4.755
		c1.814,1.102,3.885,1.653,6.213,1.653c2.021,0,3.805-0.433,5.352-1.298c1.546-0.865,3.246-2.584,5.099-5.156l0.712,0.459
		c-1.562,2.771-3.384,4.801-5.466,6.087c-2.083,1.286-4.556,1.929-7.419,1.929c-5.161,0-9.157-1.914-11.99-5.742
		c-2.113-2.848-3.17-6.201-3.17-10.06c0-3.108,0.697-5.964,2.091-8.567c1.393-2.603,3.311-4.621,5.754-6.052
		c2.441-1.432,5.11-2.147,8.004-2.147c2.251,0,4.472,0.551,6.661,1.653c0.644,0.337,1.103,0.505,1.378,0.505
		c0.414,0,0.773-0.145,1.08-0.436c0.397-0.414,0.681-0.988,0.85-1.723H113.265z"/>
	<path fill="#FFFFFF" d="M178.531,84.356h-11.878l-15.061-20.804c-1.116,0.044-2.023,0.066-2.724,0.066
		c-0.284,0-0.591-0.005-0.919-0.017c-0.328-0.011-0.667-0.027-1.017-0.049v12.929c0,2.8,0.306,4.539,0.918,5.217
		c0.831,0.963,2.078,1.443,3.741,1.443h1.739v1.215h-19.064v-1.215h1.674c1.881,0,3.226-0.611,4.035-1.838
		c0.46-0.678,0.689-2.285,0.689-4.822V47.737c0-2.8-0.307-4.539-0.919-5.217c-0.853-0.962-2.122-1.444-3.806-1.444h-1.674v-1.214
		h16.209c4.726,0,8.209,0.344,10.451,1.034c2.242,0.689,4.146,1.958,5.709,3.806c1.564,1.849,2.347,4.052,2.347,6.612
		c0,2.734-0.892,5.108-2.675,7.12c-1.783,2.013-4.544,3.435-8.285,4.266l9.188,12.764c2.101,2.932,3.905,4.879,5.414,5.84
		c1.51,0.963,3.479,1.576,5.906,1.838V84.356z M146.934,61.485c0.415,0,0.775,0.005,1.082,0.016
		c0.307,0.011,0.559,0.017,0.755,0.017c4.244,0,7.443-0.919,9.598-2.756s3.232-4.178,3.232-7.022c0-2.778-0.87-5.037-2.608-6.776
		c-1.739-1.739-4.042-2.608-6.907-2.608c-1.27,0-2.986,0.208-5.151,0.624V61.485z"/>
	<path fill="#FFFFFF" d="M193.816,83.506v0.85h-13.345v-0.85h1.102c1.287,0,2.221-0.376,2.803-1.126
		c0.367-0.49,0.551-1.669,0.551-3.538v-20.12c0-1.577-0.1-2.618-0.298-3.124c-0.153-0.383-0.468-0.712-0.942-0.988
		c-0.674-0.367-1.378-0.551-2.113-0.551h-1.102v-0.85h13.345v0.85h-1.127c-1.271,0-2.197,0.375-2.779,1.125
		c-0.383,0.49-0.574,1.669-0.574,3.537v20.12c0,1.578,0.1,2.619,0.299,3.125c0.154,0.383,0.475,0.711,0.965,0.987
		c0.658,0.367,1.355,0.552,2.09,0.552H193.816z"/>
	<path fill="#FFFFFF" d="M221.718,52.498l0.711,10.588h-0.711c-0.949-3.17-2.305-5.451-4.066-6.845
		c-1.76-1.393-3.873-2.09-6.338-2.09c-2.068,0-3.936,0.525-5.605,1.574s-2.982,2.722-3.939,5.019s-1.436,5.153-1.436,8.567
		c0,2.817,0.451,5.26,1.355,7.327s2.262,3.651,4.078,4.755c1.814,1.102,3.885,1.653,6.213,1.653c2.02,0,3.805-0.433,5.352-1.298
		c1.545-0.865,3.246-2.584,5.098-5.156l0.713,0.459c-1.562,2.771-3.385,4.801-5.467,6.087s-4.555,1.929-7.418,1.929
		c-5.162,0-9.158-1.914-11.99-5.742c-2.113-2.848-3.17-6.201-3.17-10.06c0-3.108,0.697-5.964,2.09-8.567s3.311-4.621,5.754-6.052
		c2.441-1.432,5.111-2.147,8.004-2.147c2.252,0,4.473,0.551,6.662,1.653c0.643,0.337,1.102,0.505,1.377,0.505
		c0.414,0,0.773-0.145,1.08-0.436c0.398-0.414,0.682-0.988,0.85-1.723H221.718z"/>
	<path fill="#FFFFFF" d="M233.845,67.657h14.471v-8.912c0-1.592-0.102-2.641-0.299-3.146c-0.154-0.383-0.475-0.712-0.965-0.988
		c-0.658-0.367-1.355-0.551-2.09-0.551h-1.104v-0.85h13.322v0.85h-1.104c-0.734,0-1.432,0.176-2.09,0.528
		c-0.49,0.245-0.822,0.617-0.998,1.114c-0.178,0.498-0.266,1.512-0.266,3.043v20.097c0,1.578,0.1,2.619,0.299,3.125
		c0.154,0.383,0.467,0.711,0.941,0.987c0.674,0.367,1.379,0.552,2.113,0.552h1.104v0.85h-13.322v-0.85h1.104
		c1.27,0,2.195-0.376,2.779-1.126c0.381-0.49,0.574-1.669,0.574-3.538v-9.485h-14.471v9.485c0,1.578,0.1,2.619,0.299,3.125
		c0.152,0.383,0.475,0.711,0.965,0.987c0.658,0.367,1.354,0.552,2.09,0.552h1.125v0.85h-13.346v-0.85h1.104
		c1.285,0,2.221-0.376,2.803-1.126c0.367-0.49,0.551-1.669,0.551-3.538V58.745c0-1.592-0.1-2.641-0.299-3.146
		c-0.154-0.383-0.467-0.712-0.941-0.988c-0.674-0.367-1.379-0.551-2.113-0.551h-1.104v-0.85h13.346v0.85h-1.125
		c-0.736,0-1.432,0.176-2.09,0.528c-0.477,0.245-0.805,0.617-0.988,1.114s-0.275,1.512-0.275,3.043V67.657z"/>
	<path fill="#FFFFFF" d="M277.835,84.356L265.8,58.148v20.81c0,1.914,0.207,3.109,0.619,3.584c0.566,0.643,1.463,0.965,2.688,0.965
		h1.104v0.85h-10.842v-0.85h1.104c1.316,0,2.25-0.398,2.801-1.195c0.338-0.49,0.506-1.607,0.506-3.354v-20.35
		c0-1.378-0.152-2.373-0.459-2.986c-0.215-0.444-0.609-0.815-1.184-1.114c-0.574-0.299-1.496-0.448-2.768-0.448v-0.85h8.82
		l11.301,24.37l11.117-24.37h8.82v0.85h-1.08c-1.332,0-2.273,0.398-2.826,1.194c-0.336,0.49-0.504,1.608-0.504,3.354v20.35
		c0,1.914,0.213,3.109,0.643,3.584c0.566,0.643,1.461,0.965,2.688,0.965h1.08v0.85h-13.23v-0.85h1.102
		c1.332,0,2.266-0.398,2.803-1.195c0.336-0.49,0.506-1.607,0.506-3.354v-20.81l-12.014,26.208H277.835z"/>
	<path fill="#FFFFFF" d="M322.603,73.928h-12.059l-2.113,4.914c-0.52,1.211-0.779,2.113-0.779,2.711
		c0,0.475,0.225,0.893,0.678,1.252c0.451,0.359,1.426,0.594,2.928,0.701v0.85h-9.809v-0.85c1.303-0.23,2.145-0.529,2.527-0.896
		c0.781-0.734,1.646-2.229,2.596-4.479l10.955-25.633h0.805l10.842,25.909c0.873,2.082,1.664,3.434,2.377,4.054
		c0.711,0.62,1.703,0.969,2.975,1.046v0.85h-12.289v-0.85c1.24-0.062,2.078-0.269,2.516-0.621c0.436-0.352,0.654-0.781,0.654-1.286
		c0-0.673-0.307-1.737-0.918-3.192L322.603,73.928z M321.96,72.228l-5.283-12.587l-5.42,12.587H321.96z"/>
	<path fill="#FFFFFF" d="M334.927,53.21h8.451l19.041,23.359V58.607c0-1.914-0.213-3.108-0.643-3.583
		c-0.566-0.643-1.463-0.965-2.688-0.965h-1.078v-0.85h10.84v0.85h-1.102c-1.318,0-2.252,0.398-2.803,1.194
		c-0.336,0.49-0.506,1.608-0.506,3.354v26.253h-0.826l-20.533-25.082v19.179c0,1.914,0.205,3.109,0.619,3.584
		c0.582,0.643,1.479,0.965,2.688,0.965h1.102v0.85h-10.84v-0.85h1.078c1.334,0,2.275-0.398,2.826-1.195
		c0.336-0.49,0.506-1.607,0.506-3.354V57.298c-0.904-1.057-1.59-1.753-2.057-2.09c-0.467-0.336-1.152-0.65-2.055-0.941
		c-0.445-0.138-1.119-0.207-2.021-0.207V53.21z"/>
</g>
</svg>
