<?xml version="1.0" encoding="utf-8"?>
<!-- Generator: Adobe Illustrator 16.0.0, SVG Export Plug-In . SVG Version: 6.00 Build 0)  -->
<!DOCTYPE svg PUBLIC "-//W3C//DTD SVG 1.1//EN" "http://www.w3.org/Graphics/SVG/1.1/DTD/svg11.dtd">
<svg version="1.1" id="Layer_1" xmlns="http://www.w3.org/2000/svg" xmlns:xlink="http://www.w3.org/1999/xlink" x="0px" y="0px"
	 width="345.255px" height="60.98px" viewBox="0 0 345.255 60.98" enable-background="new 0 0 345.255 60.98" xml:space="preserve">
<g>
	<path fill="#FFFFFF" d="M98.676,11.859l0.387,0.082l-1.359,4.312H85.399V15.82h0.598c0.672,0,1.152-0.219,1.441-0.656
		c0.164-0.25,0.246-0.828,0.246-1.734V3.176c0-0.992-0.109-1.613-0.328-1.863c-0.305-0.344-0.758-0.516-1.359-0.516h-0.598V0.363
		h7.195v0.434c-0.844-0.008-1.436,0.07-1.775,0.234s-0.572,0.371-0.697,0.621S89.934,2.5,89.934,3.445v9.984
		c0,0.648,0.062,1.094,0.188,1.336c0.094,0.164,0.238,0.285,0.434,0.363s0.805,0.117,1.828,0.117h1.16
		c1.219,0,2.074-0.09,2.566-0.27s0.941-0.498,1.348-0.955S98.27,12.844,98.676,11.859z"/>
	<path fill="#FFFFFF" d="M110.451,10.934h-6.152l-1.078,2.508c-0.266,0.617-0.398,1.078-0.398,1.383
		c0,0.242,0.115,0.455,0.346,0.639s0.729,0.303,1.494,0.357v0.434h-5.004V15.82c0.664-0.117,1.094-0.27,1.289-0.457
		c0.398-0.375,0.84-1.137,1.324-2.285L107.861,0h0.41l5.531,13.219c0.445,1.062,0.85,1.752,1.213,2.068s0.869,0.494,1.518,0.533
		v0.434h-6.27V15.82c0.633-0.031,1.061-0.137,1.283-0.316s0.334-0.398,0.334-0.656c0-0.344-0.156-0.887-0.469-1.629L110.451,10.934z
		 M110.123,10.066l-2.695-6.422l-2.766,6.422H110.123z"/>
	<path fill="#FFFFFF" d="M136.354,0.363v0.434c-0.414,0-0.75,0.074-1.008,0.223s-0.504,0.426-0.738,0.832
		c-0.156,0.273-0.402,0.926-0.738,1.957l-4.43,12.809h-0.469l-3.621-10.16l-3.598,10.16h-0.422l-4.723-13.195
		c-0.352-0.984-0.574-1.566-0.668-1.746c-0.156-0.297-0.369-0.518-0.639-0.662s-0.635-0.217-1.096-0.217V0.363h5.883v0.434h-0.281
		c-0.414,0-0.73,0.094-0.949,0.281s-0.328,0.414-0.328,0.68c0,0.273,0.172,0.902,0.516,1.887l3.129,8.918l2.637-7.582l-0.469-1.336
		l-0.375-1.066c-0.164-0.391-0.348-0.734-0.551-1.031c-0.102-0.148-0.227-0.273-0.375-0.375c-0.195-0.141-0.391-0.242-0.586-0.305
		c-0.148-0.047-0.383-0.07-0.703-0.07V0.363h6.188v0.434h-0.422c-0.438,0-0.758,0.094-0.961,0.281s-0.305,0.441-0.305,0.762
		c0,0.398,0.176,1.094,0.527,2.086l3.047,8.637l3.023-8.754c0.344-0.969,0.516-1.641,0.516-2.016c0-0.18-0.057-0.348-0.17-0.504
		s-0.256-0.266-0.428-0.328c-0.297-0.109-0.684-0.164-1.16-0.164V0.363H136.354z"/>
	<path fill="#FFFFFF" d="M151.319,0c2.062,0,3.85,0.783,5.361,2.35s2.268,3.521,2.268,5.865c0,2.414-0.762,4.418-2.285,6.012
		s-3.367,2.391-5.531,2.391c-2.188,0-4.025-0.777-5.514-2.332s-2.232-3.566-2.232-6.035c0-2.523,0.859-4.582,2.578-6.176
		C147.456,0.691,149.241,0,151.319,0z M151.096,0.855c-1.422,0-2.562,0.527-3.422,1.582c-1.07,1.312-1.605,3.234-1.605,5.766
		c0,2.594,0.555,4.59,1.664,5.988c0.852,1.062,1.977,1.594,3.375,1.594c1.492,0,2.725-0.582,3.697-1.746s1.459-3,1.459-5.508
		c0-2.719-0.535-4.746-1.605-6.082C153.799,1.387,152.612,0.855,151.096,0.855z"/>
	<path fill="#FFFFFF" d="M164.234,1.23v6.246h2.895c0.664,0,1.15-0.146,1.459-0.439s0.514-0.873,0.615-1.74h0.434v5.379h-0.434
		c-0.008-0.617-0.088-1.07-0.24-1.359s-0.363-0.506-0.633-0.65s-0.67-0.217-1.201-0.217h-2.895v4.992
		c0,0.805,0.051,1.336,0.152,1.594c0.078,0.195,0.242,0.363,0.492,0.504c0.344,0.188,0.703,0.281,1.078,0.281h0.574v0.434h-6.82
		V15.82h0.562c0.656,0,1.133-0.191,1.43-0.574c0.188-0.25,0.281-0.852,0.281-1.805V3.176c0-0.805-0.051-1.336-0.152-1.594
		c-0.078-0.195-0.238-0.363-0.48-0.504c-0.336-0.188-0.695-0.281-1.078-0.281h-0.562V0.363h11.824l0.152,3.492h-0.41
		c-0.203-0.742-0.439-1.287-0.709-1.635s-0.602-0.6-0.996-0.756s-1.006-0.234-1.834-0.234H164.234z"/>
	<path fill="#FFFFFF" d="M177.644,1.23v6.246h2.895c0.664,0,1.15-0.146,1.459-0.439s0.514-0.873,0.615-1.74h0.434v5.379h-0.434
		c-0.008-0.617-0.088-1.07-0.24-1.359s-0.363-0.506-0.633-0.65s-0.67-0.217-1.201-0.217h-2.895v4.992
		c0,0.805,0.051,1.336,0.152,1.594c0.078,0.195,0.242,0.363,0.492,0.504c0.344,0.188,0.704,0.281,1.079,0.281h0.574v0.434h-6.821
		V15.82h0.562c0.656,0,1.133-0.191,1.43-0.574c0.188-0.25,0.281-0.852,0.281-1.805V3.176c0-0.805-0.051-1.336-0.152-1.594
		c-0.078-0.195-0.238-0.363-0.48-0.504c-0.336-0.188-0.695-0.281-1.078-0.281h-0.562V0.363h11.825l0.152,3.492h-0.41
		c-0.203-0.742-0.439-1.287-0.709-1.635s-0.602-0.6-0.996-0.756s-1.006-0.234-1.834-0.234H177.644z"/>
	<path fill="#FFFFFF" d="M193.451,15.82v0.434h-6.809V15.82h0.562c0.656,0,1.133-0.191,1.43-0.574
		c0.188-0.25,0.281-0.852,0.281-1.805V3.176c0-0.805-0.051-1.336-0.152-1.594c-0.078-0.195-0.238-0.363-0.48-0.504
		c-0.344-0.188-0.703-0.281-1.078-0.281h-0.562V0.363h6.809v0.434h-0.574c-0.648,0-1.121,0.191-1.418,0.574
		c-0.195,0.25-0.293,0.852-0.293,1.805v10.266c0,0.805,0.051,1.336,0.152,1.594c0.078,0.195,0.242,0.363,0.492,0.504
		c0.336,0.188,0.691,0.281,1.066,0.281H193.451z"/>
	<path fill="#FFFFFF" d="M207.865,0l0.363,5.402h-0.363c-0.484-1.617-1.176-2.781-2.074-3.492s-1.977-1.066-3.234-1.066
		c-1.055,0-2.008,0.268-2.859,0.803s-1.521,1.389-2.01,2.561s-0.732,2.629-0.732,4.371c0,1.438,0.23,2.684,0.691,3.738
		s1.154,1.863,2.08,2.426s1.982,0.844,3.17,0.844c1.031,0,1.941-0.221,2.73-0.662s1.656-1.318,2.602-2.631l0.363,0.234
		c-0.797,1.414-1.727,2.449-2.789,3.105s-2.324,0.984-3.785,0.984c-2.633,0-4.672-0.977-6.117-2.93
		c-1.078-1.453-1.617-3.164-1.617-5.133c0-1.586,0.355-3.043,1.066-4.371s1.689-2.357,2.936-3.088S200.893,0,202.369,0
		c1.148,0,2.281,0.281,3.398,0.844c0.328,0.172,0.562,0.258,0.703,0.258c0.211,0,0.395-0.074,0.551-0.223
		c0.203-0.211,0.348-0.504,0.434-0.879H207.865z"/>
	<path fill="#FFFFFF" d="M214.258,1.23v6.281h3.492c0.906,0,1.512-0.137,1.816-0.41c0.406-0.359,0.633-0.992,0.68-1.898h0.434v5.531
		h-0.434c-0.109-0.773-0.219-1.27-0.328-1.488c-0.141-0.273-0.371-0.488-0.691-0.645s-0.812-0.234-1.477-0.234h-3.492v5.238
		c0,0.703,0.031,1.131,0.094,1.283s0.172,0.273,0.328,0.363s0.453,0.135,0.891,0.135h2.695c0.898,0,1.551-0.062,1.957-0.188
		s0.797-0.371,1.172-0.738c0.484-0.484,0.98-1.215,1.488-2.191h0.469l-1.371,3.984h-12.246V15.82h0.562
		c0.375,0,0.73-0.09,1.066-0.27c0.25-0.125,0.42-0.312,0.51-0.562s0.135-0.762,0.135-1.535V3.129c0-1.008-0.102-1.629-0.305-1.863
		c-0.281-0.312-0.75-0.469-1.406-0.469h-0.562V0.363h12.246l0.176,3.48h-0.457c-0.164-0.836-0.346-1.41-0.545-1.723
		s-0.494-0.551-0.885-0.715c-0.312-0.117-0.863-0.176-1.652-0.176H214.258z"/>
	<path fill="#FFFFFF" d="M238.68,0c2.062,0,3.85,0.783,5.361,2.35s2.268,3.521,2.268,5.865c0,2.414-0.762,4.418-2.285,6.012
		s-3.367,2.391-5.531,2.391c-2.188,0-4.025-0.777-5.514-2.332s-2.232-3.566-2.232-6.035c0-2.523,0.859-4.582,2.578-6.176
		C234.816,0.691,236.602,0,238.68,0z M238.457,0.855c-1.422,0-2.562,0.527-3.422,1.582c-1.07,1.312-1.605,3.234-1.605,5.766
		c0,2.594,0.555,4.59,1.664,5.988c0.852,1.062,1.977,1.594,3.375,1.594c1.492,0,2.725-0.582,3.697-1.746s1.459-3,1.459-5.508
		c0-2.719-0.535-4.746-1.605-6.082C241.16,1.387,239.973,0.855,238.457,0.855z"/>
	<path fill="#FFFFFF" d="M251.594,1.23v6.246h2.895c0.664,0,1.15-0.146,1.459-0.439s0.514-0.873,0.615-1.74h0.434v5.379h-0.434
		c-0.008-0.617-0.088-1.07-0.24-1.359s-0.363-0.506-0.633-0.65s-0.67-0.217-1.201-0.217h-2.895v4.992
		c0,0.805,0.051,1.336,0.152,1.594c0.078,0.195,0.242,0.363,0.492,0.504c0.344,0.188,0.703,0.281,1.078,0.281h0.574v0.434h-6.82
		V15.82h0.562c0.656,0,1.133-0.191,1.43-0.574c0.188-0.25,0.281-0.852,0.281-1.805V3.176c0-0.805-0.051-1.336-0.152-1.594
		c-0.078-0.195-0.238-0.363-0.48-0.504c-0.336-0.188-0.695-0.281-1.078-0.281h-0.562V0.363h11.824l0.152,3.492h-0.41
		c-0.203-0.742-0.439-1.287-0.709-1.635s-0.602-0.6-0.996-0.756s-1.006-0.234-1.834-0.234H251.594z"/>
	<path fill="#FFFFFF" d="M9.047,30.207V42.77h6.984c1.812,0,3.023-0.273,3.633-0.82c0.812-0.719,1.266-1.984,1.359-3.797h0.867
		v11.062h-0.867c-0.219-1.547-0.438-2.539-0.656-2.977c-0.281-0.547-0.742-0.977-1.383-1.289s-1.625-0.469-2.953-0.469H9.047v10.477
		c0,1.406,0.062,2.262,0.188,2.566s0.344,0.547,0.656,0.727s0.906,0.27,1.781,0.27h5.391c1.797,0,3.102-0.125,3.914-0.375
		s1.594-0.742,2.344-1.477c0.969-0.969,1.961-2.43,2.977-4.383h0.938l-2.742,7.969H0v-0.867h1.125c0.75,0,1.461-0.18,2.133-0.539
		c0.5-0.25,0.84-0.625,1.02-1.125s0.27-1.523,0.27-3.07V34.004c0-2.016-0.203-3.258-0.609-3.727c-0.562-0.625-1.5-0.938-2.812-0.938
		H0v-0.867h24.492l0.352,6.961H23.93c-0.328-1.672-0.691-2.82-1.09-3.445s-0.988-1.102-1.77-1.43
		c-0.625-0.234-1.727-0.352-3.305-0.352H9.047z"/>
	<path fill="#FFFFFF" d="M59.948,60.254h-8.484L40.706,45.395c-0.797,0.031-1.445,0.047-1.945,0.047
		c-0.203,0-0.422-0.004-0.656-0.012s-0.477-0.02-0.727-0.035v9.234c0,2,0.219,3.242,0.656,3.727
		c0.594,0.688,1.484,1.031,2.672,1.031h1.242v0.867H28.331v-0.867h1.195c1.344,0,2.305-0.438,2.883-1.312
		c0.328-0.484,0.492-1.633,0.492-3.445V34.098c0-2-0.219-3.242-0.656-3.727c-0.609-0.688-1.516-1.031-2.719-1.031h-1.195v-0.867
		h11.578c3.375,0,5.863,0.246,7.465,0.738s2.961,1.398,4.078,2.719s1.676,2.895,1.676,4.723c0,1.953-0.637,3.648-1.91,5.086
		s-3.246,2.453-5.918,3.047l6.562,9.117c1.5,2.094,2.789,3.484,3.867,4.172s2.484,1.125,4.219,1.312V60.254z M37.377,43.918
		c0.297,0,0.555,0.004,0.773,0.012s0.398,0.012,0.539,0.012c3.031,0,5.316-0.656,6.855-1.969s2.309-2.984,2.309-5.016
		c0-1.984-0.621-3.598-1.863-4.84s-2.887-1.863-4.934-1.863c-0.906,0-2.133,0.148-3.68,0.445V43.918z"/>
	<path fill="#FFFFFF" d="M75.318,59.387v0.867H61.701v-0.867h1.125c1.312,0,2.266-0.383,2.859-1.148
		c0.375-0.5,0.562-1.703,0.562-3.609V34.098c0-1.609-0.102-2.672-0.305-3.188c-0.156-0.391-0.477-0.727-0.961-1.008
		c-0.688-0.375-1.406-0.562-2.156-0.562h-1.125v-0.867h13.617v0.867h-1.148c-1.297,0-2.242,0.383-2.836,1.148
		c-0.391,0.5-0.586,1.703-0.586,3.609v20.531c0,1.609,0.102,2.672,0.305,3.188c0.156,0.391,0.484,0.727,0.984,1.008
		c0.672,0.375,1.383,0.562,2.133,0.562H75.318z"/>
	<path fill="#FFFFFF" d="M103.775,27.746l0.727,10.805h-0.727c-0.969-3.234-2.352-5.562-4.148-6.984s-3.953-2.133-6.469-2.133
		c-2.109,0-4.016,0.535-5.719,1.605s-3.043,2.777-4.02,5.121s-1.465,5.258-1.465,8.742c0,2.875,0.461,5.367,1.383,7.477
		s2.309,3.727,4.16,4.852s3.965,1.688,6.34,1.688c2.062,0,3.883-0.441,5.461-1.324s3.312-2.637,5.203-5.262l0.727,0.469
		c-1.594,2.828-3.453,4.898-5.578,6.211s-4.648,1.969-7.57,1.969c-5.266,0-9.344-1.953-12.234-5.859
		c-2.156-2.906-3.234-6.328-3.234-10.266c0-3.172,0.711-6.086,2.133-8.742s3.379-4.715,5.871-6.176s5.215-2.191,8.168-2.191
		c2.297,0,4.562,0.562,6.797,1.688c0.656,0.344,1.125,0.516,1.406,0.516c0.422,0,0.789-0.148,1.102-0.445
		c0.406-0.422,0.695-1.008,0.867-1.758H103.775z"/>
	<path fill="#FFFFFF" d="M151.33,60.254h-8.484l-10.758-14.859c-0.797,0.031-1.445,0.047-1.945,0.047
		c-0.203,0-0.422-0.004-0.656-0.012s-0.477-0.02-0.727-0.035v9.234c0,2,0.219,3.242,0.656,3.727
		c0.594,0.688,1.484,1.031,2.672,1.031h1.242v0.867h-13.617v-0.867h1.195c1.344,0,2.305-0.438,2.883-1.312
		c0.328-0.484,0.492-1.633,0.492-3.445V34.098c0-2-0.219-3.242-0.656-3.727c-0.609-0.688-1.516-1.031-2.719-1.031h-1.195v-0.867
		h11.578c3.375,0,5.863,0.246,7.465,0.738s2.961,1.398,4.078,2.719s1.676,2.895,1.676,4.723c0,1.953-0.637,3.648-1.91,5.086
		s-3.246,2.453-5.918,3.047l6.562,9.117c1.5,2.094,2.789,3.484,3.867,4.172s2.484,1.125,4.219,1.312V60.254z M128.76,43.918
		c0.297,0,0.555,0.004,0.773,0.012s0.398,0.012,0.539,0.012c3.031,0,5.316-0.656,6.855-1.969s2.309-2.984,2.309-5.016
		c0-1.984-0.621-3.598-1.863-4.84s-2.887-1.863-4.934-1.863c-0.906,0-2.133,0.148-3.68,0.445V43.918z"/>
	<path fill="#FFFFFF" d="M166.7,59.387v0.867h-13.617v-0.867h1.125c1.312,0,2.266-0.383,2.859-1.148
		c0.375-0.5,0.562-1.703,0.562-3.609V34.098c0-1.609-0.102-2.672-0.305-3.188c-0.156-0.391-0.477-0.727-0.961-1.008
		c-0.688-0.375-1.406-0.562-2.156-0.562h-1.125v-0.867H166.7v0.867h-1.148c-1.297,0-2.242,0.383-2.836,1.148
		c-0.391,0.5-0.586,1.703-0.586,3.609v20.531c0,1.609,0.102,2.672,0.305,3.188c0.156,0.391,0.484,0.727,0.984,1.008
		c0.672,0.375,1.383,0.562,2.133,0.562H166.7z"/>
	<path fill="#FFFFFF" d="M195.157,27.746l0.727,10.805h-0.727c-0.969-3.234-2.352-5.562-4.148-6.984s-3.953-2.133-6.469-2.133
		c-2.109,0-4.016,0.535-5.719,1.605s-3.043,2.777-4.02,5.121s-1.465,5.258-1.465,8.742c0,2.875,0.461,5.367,1.383,7.477
		s2.309,3.727,4.16,4.852s3.965,1.688,6.34,1.688c2.062,0,3.883-0.441,5.461-1.324s3.312-2.637,5.203-5.262l0.727,0.469
		c-1.594,2.828-3.453,4.898-5.578,6.211s-4.648,1.969-7.57,1.969c-5.266,0-9.344-1.953-12.234-5.859
		c-2.156-2.906-3.234-6.328-3.234-10.266c0-3.172,0.711-6.086,2.133-8.742s3.379-4.715,5.871-6.176s5.215-2.191,8.168-2.191
		c2.297,0,4.562,0.562,6.797,1.688c0.656,0.344,1.125,0.516,1.406,0.516c0.422,0,0.789-0.148,1.102-0.445
		c0.406-0.422,0.695-1.008,0.867-1.758H195.157z"/>
	<path fill="#FFFFFF" d="M207.522,43.215h14.766v-9.094c0-1.625-0.102-2.695-0.305-3.211c-0.156-0.391-0.484-0.727-0.984-1.008
		c-0.672-0.375-1.383-0.562-2.133-0.562h-1.125v-0.867h13.594v0.867h-1.125c-0.75,0-1.461,0.18-2.133,0.539
		c-0.5,0.25-0.84,0.629-1.02,1.137s-0.27,1.543-0.27,3.105v20.508c0,1.609,0.102,2.672,0.305,3.188
		c0.156,0.391,0.477,0.727,0.961,1.008c0.688,0.375,1.406,0.562,2.156,0.562h1.125v0.867h-13.594v-0.867h1.125
		c1.297,0,2.242-0.383,2.836-1.148c0.391-0.5,0.586-1.703,0.586-3.609v-9.68h-14.766v9.68c0,1.609,0.102,2.672,0.305,3.188
		c0.156,0.391,0.484,0.727,0.984,1.008c0.672,0.375,1.383,0.562,2.133,0.562h1.148v0.867h-13.617v-0.867h1.125
		c1.312,0,2.266-0.383,2.859-1.148c0.375-0.5,0.562-1.703,0.562-3.609V34.121c0-1.625-0.102-2.695-0.305-3.211
		c-0.156-0.391-0.477-0.727-0.961-1.008c-0.688-0.375-1.406-0.562-2.156-0.562h-1.125v-0.867h13.617v0.867h-1.148
		c-0.75,0-1.461,0.18-2.133,0.539c-0.484,0.25-0.82,0.629-1.008,1.137s-0.281,1.543-0.281,3.105V43.215z"/>
	<path fill="#FFFFFF" d="M252.401,60.254L240.12,33.512v21.234c0,1.953,0.211,3.172,0.633,3.656
		c0.578,0.656,1.492,0.984,2.742,0.984h1.125v0.867h-11.062v-0.867h1.125c1.344,0,2.297-0.406,2.859-1.219
		c0.344-0.5,0.516-1.641,0.516-3.422V33.98c0-1.406-0.156-2.422-0.469-3.047c-0.219-0.453-0.621-0.832-1.207-1.137
		s-1.527-0.457-2.824-0.457v-0.867h9l11.531,24.867l11.344-24.867h9v0.867h-1.102c-1.359,0-2.32,0.406-2.883,1.219
		c-0.344,0.5-0.516,1.641-0.516,3.422v20.766c0,1.953,0.219,3.172,0.656,3.656c0.578,0.656,1.492,0.984,2.742,0.984h1.102v0.867
		h-13.5v-0.867h1.125c1.359,0,2.312-0.406,2.859-1.219c0.344-0.5,0.516-1.641,0.516-3.422V33.512l-12.258,26.742H252.401z"/>
	<path fill="#FFFFFF" d="M298.073,49.613h-12.305l-2.156,5.016c-0.531,1.234-0.797,2.156-0.797,2.766c0,0.484,0.23,0.91,0.691,1.277
		s1.457,0.605,2.988,0.715v0.867h-10.008v-0.867c1.328-0.234,2.188-0.539,2.578-0.914c0.797-0.75,1.68-2.273,2.648-4.57
		l11.18-26.156h0.82l11.062,26.438c0.891,2.125,1.699,3.504,2.426,4.137s1.738,0.988,3.035,1.066v0.867h-12.539v-0.867
		c1.266-0.062,2.121-0.273,2.566-0.633s0.668-0.797,0.668-1.312c0-0.688-0.312-1.773-0.938-3.258L298.073,49.613z M297.417,47.879
		l-5.391-12.844l-5.531,12.844H297.417z"/>
	<path fill="#FFFFFF" d="M310.639,28.473h8.625l19.429,23.836V33.98c0-1.953-0.219-3.172-0.656-3.656
		c-0.578-0.656-1.492-0.984-2.742-0.984h-1.102v-0.867h11.062v0.867h-1.125c-1.344,0-2.297,0.406-2.859,1.219
		c-0.344,0.5-0.516,1.641-0.516,3.422V60.77h-0.844l-20.952-25.594v19.57c0,1.953,0.211,3.172,0.633,3.656
		c0.594,0.656,1.508,0.984,2.742,0.984h1.125v0.867h-11.062v-0.867h1.102c1.359,0,2.32-0.406,2.883-1.219
		c0.344-0.5,0.516-1.641,0.516-3.422V32.645c-0.922-1.078-1.621-1.789-2.098-2.133s-1.176-0.664-2.098-0.961
		c-0.453-0.141-1.141-0.211-2.062-0.211V28.473z"/>
</g>
</svg>
